<svg xmlns="http://www.w3.org/2000/svg" viewBox="0 0 360 360" role="img" aria-label="Blackwork mandala tattoo">
  <defs><radialGradient id="bg" cx="50%" cy="50%" r="72%"><stop offset="0" stop-color="#203f45"/><stop offset="1" stop-color="#07090a"/></radialGradient></defs>
  <rect width="360" height="360" rx="34" fill="url(#bg)"/>
  <g transform="translate(180 180)" fill="none" stroke-linecap="round" stroke-linejoin="round">
    <circle r="28" stroke="#e8e8e8" stroke-width="5"/><circle r="82" stroke="#4fc5d4" stroke-width="4" opacity=".8"/><circle r="118" stroke="#e8e8e8" stroke-width="4" opacity=".8"/>
    <g stroke="#e8e8e8" stroke-width="5"><path d="M0-128c18 28 18 46 0 72-18-26-18-44 0-72Z"/><path d="M0 128c18-28 18-46 0-72-18 26-18 44 0 72Z"/><path d="M128 0c-28 18-46 18-72 0 26-18 44-18 72 0Z"/><path d="M-128 0c28 18 46 18 72 0-26-18-44-18-72 0Z"/></g>
    <g stroke="#e8e8e8" stroke-width="4"><path d="M84-84c-7 30-21 44-52 52 8-30 22-44 52-52Z"/><path d="M84 84c-30-8-44-22-52-52 31 8 45 22 52 52Z"/><path d="M-84 84c7-30 21-44 52-52-8 30-22 44-52 52Z"/><path d="M-84-84c30 8 44 22 52 52-31-8-45-22-52-52Z"/></g>
  </g>
</svg>
