<svg xmlns="http://www.w3.org/2000/svg" viewBox="0 0 360 360" role="img" aria-label="Fine line rose tattoo">
  <defs>
    <radialGradient id="bg" cx="50%" cy="35%" r="75%"><stop offset="0" stop-color="#203f45"/><stop offset="1" stop-color="#081012"/></radialGradient>
    <filter id="grain"><feTurbulence type="fractalNoise" baseFrequency=".9" numOctaves="3"/><feComponentTransfer><feFuncA type="table" tableValues="0 .14"/></feComponentTransfer></filter>
  </defs>
  <rect width="360" height="360" rx="34" fill="url(#bg)"/><rect width="360" height="360" rx="34" filter="url(#grain)" opacity=".35"/>
  <g fill="none" stroke="#e8e8e8" stroke-width="6" stroke-linecap="round" stroke-linejoin="round">
    <path d="M176 260c8-42 13-78 9-116"/><path d="M185 190c26 7 48 1 65-22-26-9-51-3-65 22Z"/><path d="M174 205c-25 9-49 2-66-19 24-11 52-4 66 19Z"/>
    <path d="M158 118c17-41 67-43 87-8 17 30-3 70-52 77-47-13-58-39-35-69Z"/><path d="M176 135c19-25 55-19 62 9-20-4-40 1-58 20"/><path d="M182 163c-24-1-42-13-45-33 21-1 39 8 51 29"/>
  </g>
  <g fill="none" stroke="#4fc5d4" stroke-width="3" stroke-linecap="round" opacity=".75"><path d="M142 276c28 14 65 15 96 0"/><path d="M122 296c43 24 94 24 137 0"/></g>
</svg>
